<svg width="60" height="64" viewBox="0 0 60 64" fill="none" xmlns="http://www.w3.org/2000/svg">
<path d="M19.1606 45.5344C20.2926 46.3751 21.2308 46.9369 21.8095 47.2315C21.9668 47.3116 22.1842 47.3002 22.2244 47.1283C22.2508 47.016 22.2216 46.874 22.0638 46.7161C21.7257 46.378 21.947 46.2497 22.1782 46.2155C22.2698 46.2019 22.361 46.2304 22.4403 46.2781L22.5031 46.316C22.9514 46.5869 25.3844 47.945 25.9045 48.0072C27.538 48.2024 28.3502 47.0144 28.5767 46.2053C28.7044 45.737 28.73 44.4685 27.8105 43.1404C27.0637 42.0616 27.1649 40.3482 27.389 39.2182C27.456 38.8799 27.8447 38.7409 28.1294 38.9354L40.4532 47.3547C43.4831 49.6271 46.8942 48.216 46.0658 45.6479C45.7112 44.5486 44.7813 43.659 44.6382 42.5128C44.3951 40.5647 46.4449 40.7725 47.7324 41.2248C62.9894 46.4345 63.1887 37.8489 52.8869 28.5168C52.2701 27.958 51.5636 27.5034 50.8849 27.0217C49.2431 25.8564 49.1385 24.9594 49.5617 24.3577C50.0812 23.6191 51.1463 23.6146 52.0395 23.4822C57.4113 22.6859 52.8363 18.5032 49.8374 16.2429C48.4882 15.226 46.9058 14.4718 45.5116 13.5176C42.2994 11.319 39.1541 7.77573 37.7714 5.97828C32.5151 -2.54858 22.5578 -1.4599 22.6558 6.11717C22.6628 6.66389 21.8405 7.04004 21.4796 6.62932C16.7804 1.28145 15.5509 2.99488 15.5509 4.70124C15.7552 7.35749 15.04 7.08513 14.6569 6.61691C6.73924 -4.36578 0.737128 4.06272 6.73924 11.7251C7.78297 13.3652 7.21274 13.609 6.44782 13.4391C6.05786 13.3524 5.64843 13.6445 5.60828 14.0419C5.51018 15.0131 4.96349 14.9485 4.6505 14.8554C4.51565 14.8152 4.38247 14.7268 4.2822 14.6281C0.224789 10.6341 -4.0946 18.0656 7.39638 27.6427C8.04927 28.1869 8.7369 28.9791 9.11293 29.7413C9.17234 29.8617 8.992 29.8164 8.86042 29.7895C5.70987 29.1453 7.62936 32.0301 7.50547 32.0301C5.28069 31.929 6.20905 33.9049 6.97125 34.9359C6.98698 34.9572 7.00318 34.9756 7.02214 34.9941C8.08916 36.0317 10.1627 37.9712 12.3498 39.8429C14.596 41.7653 16.7872 43.7716 19.1606 45.5344Z" fill="url(#paint0_linear_497_8790)"/>
<path fill-rule="evenodd" clip-rule="evenodd" d="M18.3615 41.991C17.5101 41.5227 15.9351 39.0793 16.4459 33.0517C16.5275 32.2771 16.4919 29.8235 16.4472 26.7423C16.3518 20.1717 16.2151 10.7466 17.0845 8.66009C17.83 6.87083 18.7115 6.10617 19.3321 5.84009C19.598 5.72604 19.889 5.6972 20.1792 5.66844C20.2751 5.65894 20.3709 5.64944 20.4657 5.63688C25.9792 4.90647 37.0962 6.15292 41.7314 16.7055C46.3829 27.2949 41.5832 34.3451 38.3373 36.7882C38.1348 36.9406 37.9395 37.099 37.7491 37.2665C35.5712 39.1823 30.1949 42.1683 23.0346 41.6483C22.3946 41.6018 21.7235 41.7501 21.0536 41.8981C20.1575 42.0961 19.2635 42.2936 18.4485 42.0239C18.4191 42.0142 18.3901 42.0032 18.3615 41.991ZM21.8879 11.0721C24.1854 10.6874 27.8702 10.6977 29.4116 12.9097C29.7768 13.4338 29.821 14.0972 29.8389 14.7357C29.8916 16.6119 30.4199 19.2714 32.2249 20.1912C32.5845 20.3745 33.0195 20.432 33.3602 20.2157C33.8958 19.8759 34.5455 19.028 34.8354 17.2163C34.8794 17.0181 34.9736 16.7173 35.1109 16.4731C35.3155 16.1091 35.7476 16.2724 35.977 16.6214C42.2605 26.1822 39.5652 36.8793 22.3099 35.9196C21.8078 35.8916 21.3968 35.4915 21.3568 34.9901C20.6458 26.0803 20.2638 20.7373 21.0996 11.9437C21.141 11.5084 21.4566 11.1443 21.8879 11.0721Z" fill="#EFF6FC"/>
<path d="M11.6602 60.9303H10.4703L13.1441 53.5002H14.4393L17.1131 60.9303H15.9231L13.8225 54.8498H13.7645L11.6602 60.9303ZM11.8598 58.0207H15.7199V58.9639H11.8598V58.0207Z" fill="#EFF6FC"/>
<path d="M27.6343 60.9303V53.5002H30.2827C30.8583 53.5002 31.336 53.5994 31.7158 53.7977C32.0979 53.996 32.3833 54.2706 32.572 54.6213C32.7606 54.9695 32.8549 55.3722 32.8549 55.8294C32.8549 56.2841 32.7594 56.6844 32.5683 57.0302C32.3797 57.3737 32.0943 57.6409 31.7121 57.832C31.3324 58.0231 30.8547 58.1186 30.2791 58.1186H28.2728V57.1536H30.1775C30.5403 57.1536 30.8354 57.1016 31.0627 56.9976C31.2925 56.8936 31.4606 56.7424 31.567 56.5441C31.6734 56.3458 31.7266 56.1075 31.7266 55.8294C31.7266 55.5488 31.6722 55.3057 31.5634 55.1001C31.457 54.8946 31.2889 54.7374 31.0591 54.6285C30.8317 54.5173 30.533 54.4616 30.163 54.4616H28.7553V60.9303H27.6343ZM31.3022 57.5781L33.1379 60.9303H31.8609L30.0614 57.5781H31.3022Z" fill="#EFF6FC"/>
<path d="M43.1032 54.4653V53.5002H48.8535V54.4653H46.5352V60.9303H45.4178V54.4653H43.1032Z" fill="#EFF6FC"/>
<defs>
<linearGradient id="paint0_linear_497_8790" x1="12.1319" y1="13.7683" x2="43.675" y2="39.1815" gradientUnits="userSpaceOnUse">
<stop stop-color="#009987"/>
<stop offset="1" stop-color="#071828"/>
</linearGradient>
</defs>
</svg>
